<svg width="61" height="60" viewBox="0 0 61 60" fill="none" xmlns="http://www.w3.org/2000/svg">
<rect x="0.199219" width="60.5931" height="60" rx="10" fill="url(#paint0_linear_2008_45)"/>
<path opacity="0.5" d="M44.6328 39.6168C39.9195 39.35 36.1829 35.5944 36.1829 30.9998C36.1829 26.4052 39.9195 22.6495 44.6328 22.3827L44.6328 14C35.103 14.2725 27.4648 21.7791 27.4648 30.9998C27.4648 40.2205 35.103 47.7275 44.6328 48L44.6328 39.6173L44.6328 39.6168Z" fill="white"/>
<path opacity="0.5" d="M16.3555 22.3832C21.0687 22.65 24.8054 26.4056 24.8054 31.0002C24.8054 35.5948 21.0687 39.3505 16.3555 39.6173L16.3555 48C25.8853 47.7275 33.5235 40.221 33.5235 31.0002C33.5235 21.7795 25.8853 14.2725 16.3555 14L16.3555 22.3827L16.3555 22.3832Z" fill="white"/>
<defs>
<linearGradient id="paint0_linear_2008_45" x1="0.199219" y1="29.5082" x2="60.7923" y2="29.5082" gradientUnits="userSpaceOnUse">
<stop stop-color="#3578E2"/>
<stop offset="1" stop-color="#4D97E8"/>
</linearGradient>
</defs>
</svg>
