<svg width="62" height="60" viewBox="0 0 62 60" fill="none" xmlns="http://www.w3.org/2000/svg">
<rect x="0.419922" width="60.5931" height="60" rx="10" fill="url(#paint0_linear_2008_48)"/>
<path d="M39.0632 32.5552C38.7975 37.0204 35.0572 40.5604 30.4813 40.5604C25.9054 40.5604 22.165 37.0204 21.8994 32.5552H13.5508C13.8222 41.5835 21.2981 48.8197 30.4813 48.8197C39.6644 48.8197 47.1404 41.5835 47.4118 32.5552H39.0632Z" fill="white" fill-opacity="0.5"/>
<path d="M31.1272 15.2957V12L21.8105 19.5802L31.1272 27.1604V23.5673C35.5691 23.8991 39.069 27.5718 39.069 32.0553C39.069 36.5389 35.494 40.2902 30.9847 40.5533V48.8201C40.1022 48.5514 47.4099 41.1486 47.4099 32.0553C47.4099 22.9621 40.1778 15.6369 31.1272 15.2957Z" fill="white" fill-opacity="0.5"/>
<defs>
<linearGradient id="paint0_linear_2008_48" x1="0.419922" y1="29.5082" x2="61.013" y2="29.5082" gradientUnits="userSpaceOnUse">
<stop stop-color="#3578E2"/>
<stop offset="1" stop-color="#4D97E8"/>
</linearGradient>
</defs>
</svg>
