<svg width="1024" height="1024" viewBox="0 0 1024 1024" fill="none" xmlns="http://www.w3.org/2000/svg">
<circle cx="512" cy="512" r="512" fill="black"/>
<path d="M909.797 534.125C916.983 534.125 922.093 539.234 922.093 546.739C922.093 554.085 916.983 559.514 909.797 559.514C902.771 559.514 897.502 554.085 897.502 546.739C897.502 539.234 902.771 534.125 909.797 534.125Z" fill="white"/>
<path d="M876.818 439.584V558.068H852.387V545.453C846.319 554.235 837.058 559.026 825.242 559.026C800.81 559.026 784.683 541.301 784.683 514.794C784.683 488.606 800.651 471.201 824.603 471.201C836.739 471.201 846.16 475.992 852.387 484.774V439.584H876.818ZM830.99 539.225C843.605 539.225 852.387 529.485 852.387 515.433C852.387 501.381 843.605 491.64 830.99 491.64C818.216 491.64 809.433 501.541 809.273 515.433C809.433 529.485 818.056 539.225 830.99 539.225Z" fill="white"/>
<path d="M737.75 471.206C756.912 471.206 769.208 483.98 769.208 504.1V558.072H744.617V511.285C744.617 500.427 738.229 493.721 727.691 493.721C715.395 493.88 708.05 503.142 708.05 515.756V558.072H683.459V472.164H708.05V487.174C714.118 476.475 724.337 471.365 737.75 471.206Z" fill="white"/>
<path d="M623.476 471.368C653.655 471.368 667.707 491.328 665.631 522.625H603.995C606.869 533.483 615.172 539.871 626.19 539.871C634.334 539.871 641.999 536.677 647.907 530.769L660.841 543.863C652.218 553.444 639.603 559.032 624.114 559.032C596.649 559.032 579.244 541.468 579.244 515.44C579.244 488.933 597.288 471.368 623.476 471.368ZM603.516 508.094H642.637C642.318 496.757 634.973 489.412 623.635 489.412C612.777 489.412 605.432 496.757 603.516 508.094Z" fill="white"/>
<path d="M560.331 558.068H535.74V439.584H560.331V558.068Z" fill="white"/>
<path d="M476.867 471.361C500.979 471.361 517.267 489.086 517.267 515.593C517.267 541.62 501.458 559.026 477.346 559.026C465.37 559.026 455.949 554.235 449.722 545.612V558.068H425.131V439.584H449.722V484.774C455.79 476.151 465.211 471.361 476.867 471.361ZM471.119 538.587C483.734 538.587 492.356 528.846 492.356 514.794C492.356 501.062 483.734 491.161 471.119 491.161C458.504 491.161 449.722 500.902 449.722 514.794C449.722 529.006 458.504 538.587 471.119 538.587Z" fill="white"/>
<path d="M386.839 434C394.664 434 400.093 439.748 400.093 447.733C400.093 455.717 394.664 461.465 386.839 461.465C379.015 461.465 373.586 455.717 373.586 447.733C373.586 439.748 379.015 434 386.839 434ZM399.135 558.072H374.544V472.164H399.135V558.072Z" fill="white"/>
<path d="M350.511 472.156V550.08C350.511 574.511 332.148 590 304.683 590C290.152 590 277.217 585.369 267.317 578.663L276.419 561.417C284.243 567.006 293.345 570.04 303.086 570.04C317.138 570.04 326.08 562.535 326.08 550.878V541.138C320.331 549.122 311.549 553.593 300.211 553.593C278.016 553.593 262.687 536.986 262.687 512.076C262.687 487.804 277.697 471.357 299.573 471.357C311.229 471.198 320.172 475.828 326.08 483.812V472.156H350.511ZM305.96 534.91C317.936 534.91 326.08 525.808 326.08 512.715C326.08 499.461 317.936 490.359 305.96 490.359C293.984 490.359 285.84 499.621 285.681 512.715C285.84 525.808 293.824 534.91 305.96 534.91Z" fill="white"/>
<path d="M232.547 434C240.372 434 245.801 439.748 245.801 447.733C245.801 455.717 240.372 461.465 232.547 461.465C224.723 461.465 219.294 455.717 219.294 447.733C219.294 439.748 224.723 434 232.547 434ZM244.843 558.072H220.252V472.164H244.843V558.072Z" fill="white"/>
<path d="M194.136 439.584V558.068H169.705V545.453C163.637 554.235 154.375 559.026 142.559 559.026C118.128 559.026 102 541.301 102 514.794C102 488.606 117.968 471.201 141.92 471.201C154.056 471.201 163.477 475.992 169.705 484.774V439.584H194.136ZM148.307 539.225C160.922 539.225 169.705 529.485 169.705 515.433C169.705 501.381 160.922 491.64 148.307 491.64C135.533 491.64 126.751 501.541 126.591 515.433C126.751 529.485 135.373 539.225 148.307 539.225Z" fill="white"/>
</svg>
