<svg width="117" height="23" viewBox="0 0 117 23" fill="none" xmlns="http://www.w3.org/2000/svg">
<path d="M114.969 14.25C115.991 14.25 116.719 14.9772 116.719 16.0454C116.719 17.0907 115.991 17.8634 114.969 17.8634C113.969 17.8634 113.219 17.0907 113.219 16.0454C113.219 14.9772 113.969 14.25 114.969 14.25Z" fill="white"/>
<path d="M110.273 0.794922V17.6576H106.796V15.8622C105.932 17.1122 104.614 17.7939 102.933 17.7939C99.4555 17.7939 97.1602 15.2713 97.1602 11.4988C97.1602 7.77179 99.4327 5.29466 102.842 5.29466C104.569 5.29466 105.91 5.97644 106.796 7.22636V0.794922H110.273ZM103.751 14.9759C105.546 14.9759 106.796 13.5896 106.796 11.5897C106.796 9.58986 105.546 8.20358 103.751 8.20358C101.933 8.20358 100.683 9.61259 100.66 11.5897C100.683 13.5896 101.91 14.9759 103.751 14.9759Z" fill="white"/>
<path d="M90.4807 5.29517C93.2078 5.29517 94.9577 7.11324 94.9577 9.97671V17.6581H91.4579V10.9994C91.4579 9.45401 90.5489 8.49952 89.049 8.49952C87.2991 8.52225 86.2537 9.84036 86.2537 11.6357V17.6581H82.7539V5.43152H86.2537V7.56776C87.1173 6.04512 88.5717 5.31789 90.4807 5.29517Z" fill="white"/>
<path d="M74.217 5.31836C78.5122 5.31836 80.512 8.1591 80.2166 12.6134H71.4444C71.8535 14.1588 73.0352 15.0678 74.6033 15.0678C75.7623 15.0678 76.8532 14.6133 77.694 13.7724L79.5348 15.6359C78.3076 16.9995 76.5123 17.7949 74.3079 17.7949C70.399 17.7949 67.9219 15.295 67.9219 11.5907C67.9219 7.81821 70.4899 5.31836 74.217 5.31836ZM71.3762 10.5453H76.9441C76.8986 8.93178 75.8532 7.88639 74.2397 7.88639C72.6943 7.88639 71.6489 8.93178 71.3762 10.5453Z" fill="white"/>
<path d="M65.2303 17.6576H61.7305V0.794922H65.2303V17.6576Z" fill="white"/>
<path d="M53.3515 5.31738C56.7831 5.31738 59.1012 7.83997 59.1012 11.6125C59.1012 15.3168 56.8513 17.7939 53.4197 17.7939C51.7152 17.7939 50.3744 17.1122 49.4881 15.8849V17.6576H45.9883V0.794922H49.4881V7.22636C50.3517 5.99916 51.6925 5.31738 53.3515 5.31738ZM52.5334 14.885C54.3287 14.885 55.5559 13.4987 55.5559 11.4988C55.5559 9.54441 54.3287 8.1354 52.5334 8.1354C50.738 8.1354 49.4881 9.52168 49.4881 11.4988C49.4881 13.5215 50.738 14.885 52.5334 14.885Z" fill="white"/>
<path d="M40.5386 0C41.6522 0 42.4248 0.818133 42.4248 1.95443C42.4248 3.09073 41.6522 3.90886 40.5386 3.90886C39.425 3.90886 38.6523 3.09073 38.6523 1.95443C38.6523 0.818133 39.425 0 40.5386 0ZM42.2885 17.6581H38.7887V5.4315H42.2885V17.6581Z" fill="white"/>
<path d="M35.3665 5.4306V16.5209C35.3665 19.9979 32.753 22.2024 28.8441 22.2024C26.7761 22.2024 24.9352 21.5433 23.5262 20.5888L24.8216 18.1344C25.9352 18.9298 27.2306 19.3616 28.6169 19.3616C30.6167 19.3616 31.8894 18.2935 31.8894 16.6345V15.2482C31.0713 16.3845 29.8213 17.0208 28.2078 17.0208C25.0489 17.0208 22.8672 14.6573 22.8672 11.1121C22.8672 7.65775 25.0034 5.31698 28.1169 5.31698C29.7759 5.29425 31.0485 5.9533 31.8894 7.0896V5.4306H35.3665ZM29.0259 14.3619C30.7304 14.3619 31.8894 13.0665 31.8894 11.203C31.8894 9.31674 30.7304 8.02136 29.0259 8.02136C27.3215 8.02136 26.1624 9.33947 26.1397 11.203C26.1624 13.0665 27.2987 14.3619 29.0259 14.3619Z" fill="white"/>
<path d="M18.5816 0C19.6951 0 20.4678 0.818133 20.4678 1.95443C20.4678 3.09073 19.6951 3.90886 18.5816 3.90886C17.468 3.90886 16.6953 3.09073 16.6953 1.95443C16.6953 0.818133 17.468 0 18.5816 0ZM20.3315 17.6581H16.8317V5.4315H20.3315V17.6581Z" fill="white"/>
<path d="M13.1129 0.794922V17.6576H9.6358V15.8622C8.77222 17.1122 7.45411 17.7939 5.77239 17.7939C2.29532 17.7939 0 15.2713 0 11.4988C0 7.77179 2.27259 5.29466 5.68149 5.29466C7.40866 5.29466 8.74949 5.97644 9.6358 7.22636V0.794922H13.1129ZM6.59052 14.9759C8.38587 14.9759 9.6358 13.5896 9.6358 11.5897C9.6358 9.58986 8.38587 8.20358 6.59052 8.20358C4.77245 8.20358 3.52252 9.61259 3.4998 11.5897C3.52252 13.5896 4.74972 14.9759 6.59052 14.9759Z" fill="white"/>
</svg>
