<svg width="1589" height="278" viewBox="0 0 1589 278" fill="none" xmlns="http://www.w3.org/2000/svg">
<path d="M147.22 277.32C126.193 277.32 106.687 274.027 88.7 267.44C70.9667 260.6 55.5133 250.973 42.34 238.56C29.42 226.147 19.2867 211.58 11.94 194.86C4.59333 177.887 0.920001 159.267 0.920001 139C0.920001 118.733 4.59333 100.24 11.94 83.52C19.2867 66.5467 29.42 51.8533 42.34 39.44C55.5133 27.0267 70.9667 17.5267 88.7 10.94C106.687 4.09998 126.193 0.679982 147.22 0.679982C171.793 0.679982 193.707 4.98665 212.96 13.6C232.467 22.2133 248.68 34.6267 261.6 50.84L213.72 94.16C205.107 84.0267 195.607 76.3 185.22 70.98C175.087 65.66 163.687 63 151.02 63C140.127 63 130.12 64.7733 121 68.32C111.88 71.8667 104.027 77.06 97.44 83.9C91.1067 90.4867 86.04 98.4667 82.24 107.84C78.6933 117.213 76.92 127.6 76.92 139C76.92 150.4 78.6933 160.787 82.24 170.16C86.04 179.533 91.1067 187.64 97.44 194.48C104.027 201.067 111.88 206.133 121 209.68C130.12 213.227 140.127 215 151.02 215C163.687 215 175.087 212.34 185.22 207.02C195.607 201.7 205.107 193.973 213.72 183.84L261.6 227.16C248.68 243.12 232.467 255.533 212.96 264.4C193.707 273.013 171.793 277.32 147.22 277.32ZM251.174 272L368.594 5.99998H442.694L560.494 272H482.214L390.254 42.86H419.894L327.934 272H251.174ZM315.394 220.32L334.774 164.84H464.734L484.114 220.32H315.394ZM574.224 272V5.99998H695.824C720.144 5.99998 741.044 9.92665 758.524 17.78C776.258 25.6333 789.938 37.0333 799.564 51.98C809.191 66.6733 814.004 84.1533 814.004 104.42C814.004 124.433 809.191 141.787 799.564 156.48C789.938 170.92 776.258 182.067 758.524 189.92C741.044 197.52 720.144 201.32 695.824 201.32H616.024L649.464 169.78V272H574.224ZM738.764 272L672.644 175.1H752.824L819.324 272H738.764ZM649.464 177.76L616.024 143.18H691.264C706.971 143.18 718.624 139.76 726.224 132.92C734.078 126.08 738.004 116.58 738.004 104.42C738.004 92.0067 734.078 82.38 726.224 75.54C718.624 68.7 706.971 65.28 691.264 65.28H616.024L649.464 30.7V177.76ZM917.073 108.98H1040.57V165.22H917.073V108.98ZM922.393 213.86H1061.47V272H847.913V5.99998H1056.53V64.14H922.393V213.86ZM1164.79 108.98H1288.29V165.22H1164.79V108.98ZM1170.11 213.86H1309.19V272H1095.63V5.99998H1304.25V64.14H1170.11V213.86ZM1343.34 272V5.99998H1464.94C1489.26 5.99998 1510.16 9.92665 1527.64 17.78C1545.37 25.6333 1559.05 37.0333 1568.68 51.98C1578.3 66.6733 1583.12 84.1533 1583.12 104.42C1583.12 124.433 1578.3 141.787 1568.68 156.48C1559.05 170.92 1545.37 182.067 1527.64 189.92C1510.16 197.52 1489.26 201.32 1464.94 201.32H1385.14L1418.58 169.78V272H1343.34ZM1507.88 272L1441.76 175.1H1521.94L1588.44 272H1507.88ZM1418.58 177.76L1385.14 143.18H1460.38C1476.08 143.18 1487.74 139.76 1495.34 132.92C1503.19 126.08 1507.12 116.58 1507.12 104.42C1507.12 92.0067 1503.19 82.38 1495.34 75.54C1487.74 68.7 1476.08 65.28 1460.38 65.28H1385.14L1418.58 30.7V177.76Z" fill="#243342" fill-opacity="0.03"/>
</svg>
