<svg width="1886" height="278" viewBox="0 0 1886 278" fill="none" xmlns="http://www.w3.org/2000/svg">
<path d="M147.22 277.32C126.193 277.32 106.687 274.027 88.7 267.44C70.9667 260.6 55.5133 250.973 42.34 238.56C29.42 226.147 19.2867 211.58 11.94 194.86C4.59333 177.887 0.920001 159.267 0.920001 139C0.920001 118.733 4.59333 100.24 11.94 83.52C19.2867 66.5467 29.42 51.8533 42.34 39.44C55.5133 27.0267 70.9667 17.5267 88.7 10.94C106.687 4.09998 126.193 0.679982 147.22 0.679982C171.793 0.679982 193.707 4.98665 212.96 13.6C232.467 22.2133 248.68 34.6267 261.6 50.84L213.72 94.16C205.107 84.0267 195.607 76.3 185.22 70.98C175.087 65.66 163.687 63 151.02 63C140.127 63 130.12 64.7733 121 68.32C111.88 71.8667 104.027 77.06 97.44 83.9C91.1067 90.4867 86.04 98.4667 82.24 107.84C78.6933 117.213 76.92 127.6 76.92 139C76.92 150.4 78.6933 160.787 82.24 170.16C86.04 179.533 91.1067 187.64 97.44 194.48C104.027 201.067 111.88 206.133 121 209.68C130.12 213.227 140.127 215 151.02 215C163.687 215 175.087 212.34 185.22 207.02C195.607 201.7 205.107 193.973 213.72 183.84L261.6 227.16C248.68 243.12 232.467 255.533 212.96 264.4C193.707 273.013 171.793 277.32 147.22 277.32ZM416.12 277.32C394.84 277.32 375.207 273.9 357.22 267.06C339.234 260.22 323.527 250.593 310.1 238.18C296.927 225.513 286.667 210.82 279.32 194.1C271.974 177.38 268.3 159.013 268.3 139C268.3 118.987 271.974 100.62 279.32 83.9C286.667 67.18 296.927 52.6133 310.1 40.2C323.527 27.5333 339.234 17.78 357.22 10.94C375.207 4.09998 394.84 0.679982 416.12 0.679982C437.654 0.679982 457.287 4.09998 475.02 10.94C493.007 17.78 508.587 27.5333 521.76 40.2C534.934 52.6133 545.194 67.18 552.54 83.9C560.14 100.62 563.94 118.987 563.94 139C563.94 159.013 560.14 177.507 552.54 194.48C545.194 211.2 534.934 225.767 521.76 238.18C508.587 250.593 493.007 260.22 475.02 267.06C457.287 273.9 437.654 277.32 416.12 277.32ZM416.12 215C426.254 215 435.627 213.227 444.24 209.68C453.107 206.133 460.707 201.067 467.04 194.48C473.627 187.64 478.694 179.533 482.24 170.16C486.04 160.787 487.94 150.4 487.94 139C487.94 127.347 486.04 116.96 482.24 107.84C478.694 98.4667 473.627 90.4867 467.04 83.9C460.707 77.06 453.107 71.8667 444.24 68.32C435.627 64.7733 426.254 63 416.12 63C405.987 63 396.487 64.7733 387.62 68.32C379.007 71.8667 371.407 77.06 364.82 83.9C358.487 90.4867 353.42 98.4667 349.62 107.84C346.074 116.96 344.3 127.347 344.3 139C344.3 150.4 346.074 160.787 349.62 170.16C353.42 179.533 358.487 187.64 364.82 194.48C371.407 201.067 379.007 206.133 387.62 209.68C396.487 213.227 405.987 215 416.12 215ZM595.748 272V5.99998H657.688L804.368 183.08H775.108V5.99998H848.828V272H786.888L640.208 94.92H669.468V272H595.748ZM950.92 272V65.66H869.22V5.99998H1107.48V65.66H1026.16V272H950.92ZM1082.63 272L1200.05 5.99998H1274.15L1391.95 272H1313.67L1221.71 42.86H1251.35L1159.39 272H1082.63ZM1146.85 220.32L1166.23 164.84H1296.19L1315.57 220.32H1146.85ZM1534.59 277.32C1513.56 277.32 1494.06 274.027 1476.07 267.44C1458.34 260.6 1442.88 250.973 1429.71 238.56C1416.79 226.147 1406.66 211.58 1399.31 194.86C1391.96 177.887 1388.29 159.267 1388.29 139C1388.29 118.733 1391.96 100.24 1399.31 83.52C1406.66 66.5467 1416.79 51.8533 1429.71 39.44C1442.88 27.0267 1458.34 17.5267 1476.07 10.94C1494.06 4.09998 1513.56 0.679982 1534.59 0.679982C1559.16 0.679982 1581.08 4.98665 1600.33 13.6C1619.84 22.2133 1636.05 34.6267 1648.97 50.84L1601.09 94.16C1592.48 84.0267 1582.98 76.3 1572.59 70.98C1562.46 65.66 1551.06 63 1538.39 63C1527.5 63 1517.49 64.7733 1508.37 68.32C1499.25 71.8667 1491.4 77.06 1484.81 83.9C1478.48 90.4867 1473.41 98.4667 1469.61 107.84C1466.06 117.213 1464.29 127.6 1464.29 139C1464.29 150.4 1466.06 160.787 1469.61 170.16C1473.41 179.533 1478.48 187.64 1484.81 194.48C1491.4 201.067 1499.25 206.133 1508.37 209.68C1517.49 213.227 1527.5 215 1538.39 215C1551.06 215 1562.46 212.34 1572.59 207.02C1582.98 201.7 1592.48 193.973 1601.09 183.84L1648.97 227.16C1636.05 243.12 1619.84 255.533 1600.33 264.4C1581.08 273.013 1559.16 277.32 1534.59 277.32ZM1729.31 272V65.66H1647.61V5.99998H1885.87V65.66H1804.55V272H1729.31Z" fill="#243342" fill-opacity="0.03"/>
</svg>
