<svg width="29" height="27" viewBox="0 0 29 27" fill="none" xmlns="http://www.w3.org/2000/svg">
<g clip-path="url(#clip0_882_35)">
<path d="M14.0246 21.2283L14.0553 22.0342L14.1603 24.7973L20.315 19.0754L20.3206 19.0702L20.3262 19.0651C21.9838 17.5703 22.9615 15.5415 23.0582 13.3965C23.1546 11.2556 22.3659 9.16168 20.8542 7.54451C19.9773 6.65792 18.8998 5.96299 17.6994 5.50975C16.4949 5.05499 15.1967 4.85493 13.8989 4.92405C12.601 4.99318 11.3359 5.32975 10.1951 5.90941C9.05451 6.48902 8.06677 7.29717 7.30344 8.27536L14.0246 21.2283ZM14.0246 21.2283L13.1658 21.1149M14.0246 21.2283L13.1658 21.1149M13.1658 21.1149C11.6712 20.9176 10.2568 20.3645 9.05988 19.5094C7.86292 18.6543 6.924 17.526 6.33419 16.2342C5.74438 14.9423 5.5237 13.5307 5.69356 12.1362C5.86339 10.7419 6.41788 9.41203 7.30325 8.27561L13.1658 21.1149ZM13.9455 24.9971C13.9459 24.9967 13.9463 24.9964 13.9467 24.996L13.9455 24.9971Z" stroke="white" stroke-width="2"/>
</g>
<defs>
<clipPath id="clip0_882_35">
<rect width="19.4186" height="19.4186" fill="white" transform="matrix(0.732386 -0.680889 0.732386 0.680889 0 13.2219)"/>
</clipPath>
</defs>
</svg>
