<svg width="62" height="53" viewBox="0 0 62 53" fill="none" xmlns="http://www.w3.org/2000/svg">
<path d="M49.8255 0.325637C49.1583 -0.165462 48.2194 -0.0227335 47.7283 0.644434L39.7253 11.5166C39.2342 12.1837 39.377 13.1227 40.0441 13.6138C40.7113 14.1049 41.6503 13.9622 42.1414 13.295L49.2551 3.63088L58.9192 10.7446C59.5864 11.2357 60.5253 11.093 61.0164 10.4258C61.5075 9.75862 61.3648 8.81966 60.6976 8.32856L49.8255 0.325637ZM0.796366 51.9131C14.2231 53.7526 28.2466 51.8394 38.1537 43.9641C48.1586 36.0111 53.6064 22.275 50.4193 1.30822L47.4533 1.75908C50.5301 21.9998 45.2141 34.5194 36.2869 41.6157C27.262 48.7897 14.1854 50.7194 1.20356 48.9409L0.796366 51.9131Z" fill="black"/>
</svg>
