<svg width="50" height="102" viewBox="0 0 50 102" fill="none" xmlns="http://www.w3.org/2000/svg">
<path opacity="0.9" d="M50.0001 51.6667C50.0001 79.2809 27.6143 101.667 6.10352e-05 101.667C6.10352e-05 101.667 6.10352e-05 101.667 0 46.6668C0 -13.3334 6.10352e-05 1.66668 6.10352e-05 1.66668C27.6143 1.66668 50.0001 24.0525 50.0001 51.6667Z" fill="#243342"/>
<path d="M9.93946 50.6061C9.35368 51.1919 9.35368 52.1416 9.93946 52.7274L19.4854 62.2733C20.0712 62.8591 21.0209 62.8591 21.6067 62.2733C22.1925 61.6876 22.1925 60.7378 21.6067 60.152L13.1214 51.6667L21.6067 43.1815C22.1925 42.5957 22.1925 41.6459 21.6067 41.0601C21.0209 40.4744 20.0712 40.4744 19.4854 41.0601L9.93946 50.6061ZM37.0001 50.1667H11.0001V53.1667H37.0001V50.1667Z" fill="white"/>
</svg>
