<svg width="50" height="102" viewBox="0 0 50 102" fill="none" xmlns="http://www.w3.org/2000/svg">
<path opacity="0.9" d="M-6.10352e-05 51.6667C-6.10352e-05 79.2809 22.3857 101.667 49.9999 101.667C49.9999 101.667 49.9999 101.667 50 46.6668C50 -13.3334 49.9999 1.66668 49.9999 1.66668C22.3857 1.66668 -6.10352e-05 24.0525 -6.10352e-05 51.6667Z" fill="#243342"/>
<path d="M40.0607 50.6061C40.6464 51.1919 40.6464 52.1416 40.0607 52.7274L30.5147 62.2733C29.9289 62.8591 28.9792 62.8591 28.3934 62.2733C27.8076 61.6876 27.8076 60.7378 28.3934 60.152L36.8787 51.6667L28.3934 43.1815C27.8076 42.5957 27.8076 41.6459 28.3934 41.0601C28.9792 40.4744 29.9289 40.4744 30.5147 41.0601L40.0607 50.6061ZM13 50.1667H39V53.1667H13V50.1667Z" fill="white"/>
</svg>
