<svg width="118" height="20" viewBox="0 0 118 20" fill="none" xmlns="http://www.w3.org/2000/svg">
<path d="M10 0L12.2451 6.90983H19.5106L13.6327 11.1803L15.8779 18.0902L10 13.8197L4.12215 18.0902L6.36729 11.1803L0.489435 6.90983H7.75486L10 0Z" fill="#3578E2"/>
<path d="M34 0L36.2451 6.90983H43.5106L37.6327 11.1803L39.8779 18.0902L34 13.8197L28.1221 18.0902L30.3673 11.1803L24.4894 6.90983H31.7549L34 0Z" fill="#3578E2"/>
<path d="M59 0L61.2451 6.90983H68.5106L62.6327 11.1803L64.8779 18.0902L59 13.8197L53.1221 18.0902L55.3673 11.1803L49.4894 6.90983H56.7549L59 0Z" fill="#3578E2"/>
<path d="M83 0L85.2451 6.90983H92.5106L86.6327 11.1803L88.8779 18.0902L83 13.8197L77.1221 18.0902L79.3673 11.1803L73.4894 6.90983H80.7549L83 0Z" fill="#3578E2"/>
<path d="M108 0L110.245 6.90983H117.511L111.633 11.1803L113.878 18.0902L108 13.8197L102.122 18.0902L104.367 11.1803L98.4894 6.90983H105.755L108 0Z" fill="#3578E2"/>
</svg>
