<svg width="146" height="25" viewBox="0 0 146 25" fill="none" xmlns="http://www.w3.org/2000/svg">
<path d="M12.5 0L15.3064 8.63729H24.3882L17.0409 13.9754L19.8473 22.6127L12.5 17.2746L5.15268 22.6127L7.95911 13.9754L0.611794 8.63729H9.69357L12.5 0Z" fill="#243342"/>
<path d="M42.5 0L45.3064 8.63729H54.3882L47.0409 13.9754L49.8473 22.6127L42.5 17.2746L35.1527 22.6127L37.9591 13.9754L30.6118 8.63729H39.6936L42.5 0Z" fill="#243342"/>
<path d="M72.5 0L75.3064 8.63729H84.3882L77.0409 13.9754L79.8473 22.6127L72.5 17.2746L65.1527 22.6127L67.9591 13.9754L60.6118 8.63729H69.6936L72.5 0Z" fill="#243342"/>
<path d="M103.5 0L106.306 8.63729H115.388L108.041 13.9754L110.847 22.6127L103.5 17.2746L96.1527 22.6127L98.9591 13.9754L91.6118 8.63729H100.694L103.5 0Z" fill="#243342"/>
<path d="M133.5 0L136.306 8.63729H145.388L138.041 13.9754L140.847 22.6127L133.5 17.2746L126.153 22.6127L128.959 13.9754L121.612 8.63729H130.694L133.5 0Z" fill="#243342"/>
</svg>
